<?xml version="1.0" encoding="UTF-8"?>
<svg fill="#3B6BF9" width="100px" height="95px" version="1.1" viewBox="0 0 700 700" xmlns="http://www.w3.org/2000/svg" xmlns:xlink="http://www.w3.org/1999/xlink">
 <g>
  <path d="m315.01 173.74c22.34-0.11719 45.082-8.1172 69.504-24.445 3.7695-2.5312 8.1719-3.875 12.707-3.875 6.6562 0 12.902 2.8789 17.211 7.8164l133.29-81.543 4.3711 7.1445-133.42 81.617c3.5078 9.6406 0.17969 20.801-8.7109 26.77-31.297 21.066-64.125 32.207-94.926 32.207h-0.027344v84.352h278.66l0.003906-303.79h-278.66z"/>
  <path d="m314.77 214.86h0.23828 0.023437c25.801 0 57.625-8.0312 92.383-31.43 6.8594-4.6016 9.5938-13.039 7.2852-20.543-0.51562-1.6641-1.2695-3.2891-2.2891-4.8086-0.58984-0.87891-1.25-1.668-1.957-2.4102-6.0234-6.3359-15.898-7.6172-23.402-2.5781-29.617 19.805-53.598 25.121-72.043 25.219-0.078125 0-0.16016 0.003906-0.23828 0.003906-14.609 0-25.949-3.4414-33.582-6.7617-3.8047-1.6641-6.6562-3.293-8.4375-4.418-0.89453-0.5625-1.5117-0.99219-1.8477-1.2344-0.12109-0.089844-0.20703-0.15234-0.25-0.1875-0.03125-0.023438-0.039062-0.03125-0.039062-0.03125l-0.003907 0.003906c-2.0117-1.5977-4.2617-2.6914-6.5977-3.3203-1.75-0.58203-3.6172-0.90625-5.5625-0.90625h-12.477l-75.77-0.003907c-1.2695 0-2.5 0.14062-3.6953 0.39453-7.9336 0.54297-15.289 3.0117-21.816 6.5117-11.117 6.0195-20.227 14.98-27.031 25.52-6.7305 10.555-11.277 22.887-11.336 36.297-0.007813 7.5586 1.5703 15.469 5.2344 22.852 5.457 11.152 15.578 20.371 28.59 26.059 2.4883 1.0977 5.1211 2.0547 7.8281 2.9414 1.4922 0.48828 3.0117 0.94922 4.5742 1.3711 0.41406 0.11328 0.83203 0.22266 1.2539 0.33203 6.5859 1.6992 13.754 2.8633 21.621 3.4609 4.2695 0.32813 8.7266 0.5 13.41 0.50781 4.7109-0.003906 9.6328-0.16406 14.797-0.50391 1.6719-0.10938 3.2695-0.46094 4.7812-0.98047 7.5859-2.6211 12.812-10.043 12.27-18.441-0.66016-10.07-9.3516-17.703-19.426-17.043-4.4258 0.28516-8.5664 0.42188-12.422 0.42188-2.6992 0.007812-5.2539-0.058594-7.6641-0.18359-13.883-0.73047-23.094-3.5-28.617-6.4609-1.1758-0.62891-2.1992-1.2656-3.0469-1.8945-0.57031-0.41406-1.0625-0.81641-1.5234-1.2148-1.8438-1.5938-2.9062-3.0938-3.6758-4.5938-0.92578-1.8945-1.418-3.9805-1.4258-6.6211-0.15625-6.1367 3.5508-15.289 9.6172-21.93 0.019532-0.023437 0.042969-0.042968 0.0625-0.0625v31.23l2.1523 1.1562c3.7422 2.0117 11.977 5.2109 27.168 5.9492l6.3789-40.23 61.66 9.7734-7.6602 48.32-8.793 55.453-13.844-2.1953-10.59-1.6758-37.23-5.9023 2.8945-18.25c-7.8789-0.625-15.113-1.7969-21.859-3.5312-0.09375-0.023438-0.19141-0.046875-0.28516-0.070313v243.55c0 15.598 12.641 28.238 28.238 28.238s28.238-12.641 28.238-28.238v-178.79h10.59v178.79c0 15.598 12.641 28.238 28.238 28.238 15.598 0 28.238-12.641 28.238-28.238v-323.07c10.34 3.4414 23.324 6.1367 38.672 6.1641z"/>
  <path d="m222.48 44.73c27.637 6.4375 44.824 34.059 38.387 61.691-6.4336 27.637-34.055 44.824-61.691 38.391-27.637-6.4375-44.824-34.059-38.387-61.695 6.4336-27.637 34.055-44.824 61.691-38.387"/>
  <use x="106.328125" y="594.261719" xlink:href="#u"/>
  <use x="114.710938" y="594.261719" xlink:href="#e"/>
  <use x="120.34375" y="594.261719" xlink:href="#b"/>
  <use x="128.089844" y="594.261719" xlink:href="#d"/>
  <use x="135.796875" y="594.261719" xlink:href="#c"/>
  <use x="141.253906" y="594.261719" xlink:href="#b"/>
  <use x="149" y="594.261719" xlink:href="#k"/>
  <use x="161.152344" y="594.261719" xlink:href="#j"/>
  <use x="169.328125" y="594.261719" xlink:href="#g"/>
  <use x="180.746094" y="594.261719" xlink:href="#i"/>
  <use x="190.121094" y="594.261719" xlink:href="#d"/>
  <use x="197.828125" y="594.261719" xlink:href="#f"/>
  <use x="209.933594" y="594.261719" xlink:href="#t"/>
  <use x="218.785156" y="594.261719" xlink:href="#h"/>
  <use x="226.914062" y="594.261719" xlink:href="#a"/>
  <use x="234.761719" y="594.261719" xlink:href="#a"/>
  <use x="242.605469" y="594.261719" xlink:href="#f"/>
  <use x="254.714844" y="594.261719" xlink:href="#s"/>
  <use x="261.992188" y="594.261719" xlink:href="#d"/>
  <use x="269.699219" y="594.261719" xlink:href="#g"/>
  <use x="106.328125" y="605.683594" xlink:href="#r"/>
  <use x="111.296875" y="605.683594" xlink:href="#e"/>
  <use x="116.929688" y="605.683594" xlink:href="#a"/>
  <use x="124.777344" y="605.683594" xlink:href="#q"/>
  <use x="140.652344" y="605.683594" xlink:href="#c"/>
  <use x="146.113281" y="605.683594" xlink:href="#h"/>
  <use x="154.242188" y="605.683594" xlink:href="#b"/>
  <use x="165.964844" y="605.683594" xlink:href="#p"/>
  <use x="175.523438" y="605.683594" xlink:href="#a"/>
  <use x="183.367188" y="605.683594" xlink:href="#o"/>
  <use x="191.5" y="605.683594" xlink:href="#f"/>
  <use x="203.605469" y="605.683594" xlink:href="#n"/>
  <use x="211.976562" y="605.683594" xlink:href="#e"/>
  <use x="217.609375" y="605.683594" xlink:href="#a"/>
  <use x="225.453125" y="605.683594" xlink:href="#m"/>
  <use x="229.367188" y="605.683594" xlink:href="#b"/>
  <use x="237.113281" y="605.683594" xlink:href="#l"/>
  <use x="243.882812" y="605.683594" xlink:href="#c"/>
 </g>
</svg>
